<svg width="11" height="12" viewBox="0 0 11 12" fill="none" xmlns="http://www.w3.org/2000/svg">
<path id="Subtract" fill-rule="evenodd" clip-rule="evenodd" d="M2.65647 3.13236V3.13239H1.63348C1.33741 3.13239 1.09058 3.35897 1.0653 3.65396L0.429859 11.0674C0.401321 11.4003 0.663877 11.6864 0.998041 11.6864H10.0203C10.3545 11.6864 10.6171 11.4003 10.5885 11.0674L9.95308 3.65396C9.92779 3.35897 9.68097 3.13239 9.3849 3.13239H8.35912V3.13236C8.35912 1.55762 7.08254 0.281036 5.5078 0.281036C3.93305 0.281036 2.65647 1.55762 2.65647 3.13236ZM5.50767 1.42161C4.56282 1.42161 3.79688 2.18755 3.79687 3.13239H7.21846C7.21846 2.18755 6.45251 1.42161 5.50767 1.42161ZM5.50647 7.69438C7.06689 7.69438 8.33454 6.44092 8.35748 4.88595C8.35852 4.87183 8.35906 4.85757 8.35906 4.84318C8.35906 4.52824 8.10374 4.27292 7.78879 4.27292C7.47385 4.27292 7.21854 4.52822 7.21853 4.84316H7.21686C7.21683 5.78797 6.45089 6.55389 5.50606 6.55389C4.57638 6.55389 3.81989 5.81233 3.79586 4.88844C3.79703 4.87347 3.79763 4.85835 3.79763 4.84308C3.79763 4.52813 3.54232 4.27281 3.22737 4.27281C2.91242 4.27281 2.65711 4.52813 2.65711 4.84308V4.84316H2.65554V4.79538C2.65528 4.81124 2.65515 4.82714 2.65515 4.84306C2.65515 6.4178 3.93173 7.69438 5.50647 7.69438Z" fill="white"/>
</svg>
